<?xml version="1.0" standalone="no"?>
<!DOCTYPE svg PUBLIC "-//W3C//DTD SVG 20010904//EN"
 "http://www.w3.org/TR/2001/REC-SVG-20010904/DTD/svg10.dtd">
<svg version="1.0" xmlns="http://www.w3.org/2000/svg"
 width="280.000000pt" height="280.000000pt" viewBox="0 0 280.000000 280.000000"
 preserveAspectRatio="xMidYMid meet">
<metadata>
Created by potrace 1.11, written by Peter Selinger 2001-2013
</metadata>
<g transform="translate(0.000000,280.000000) scale(0.100000,-0.100000)"
fill="#000000" stroke="none">
<path d="M1160 2780 c-259 -49 -438 -130 -640 -290 -248 -197 -419 -475 -490
-795 -25 -113 -36 -363 -20 -475 38 -265 148 -517 309 -710 213 -255 510 -428
835 -487 139 -25 382 -22 516 6 287 61 510 180 711 380 148 149 251 303 321
481 30 76 64 197 73 255 3 23 8 52 11 65 3 14 7 84 8 155 6 230 -33 422 -125
624 -150 326 -429 587 -760 714 -112 42 -178 63 -239 72 -25 4 -54 10 -65 12
-11 3 -94 7 -185 8 -124 2 -189 -2 -260 -15z"/>
</g>
</svg>
